<svg width="6" height="10" viewBox="0 0 6 10" fill="none" xmlns="http://www.w3.org/2000/svg">
<path d="M4.3148 4.9981L1.12138 8.36512C1.03345 8.45761 0.985075 8.58127 0.985075 8.71312C0.985075 8.84505 1.03345 8.96863 1.12138 9.06127L1.4012 9.35615C1.489 9.44893 1.60635 9.5 1.73141 9.5C1.85647 9.5 1.97369 9.44893 2.06155 9.35615L5.86383 5.34741C5.95204 5.25449 6.00035 5.13032 6 4.99832C6.00035 4.86573 5.95211 4.74171 5.86383 4.64871L2.06509 0.643854C1.97723 0.551074 1.86001 0.5 1.73488 0.5C1.60982 0.5 1.4926 0.551074 1.40467 0.643854L1.12492 0.938732C0.942879 1.13066 0.942879 1.4431 1.12492 1.63495L4.3148 4.9981Z" fill="white"/>
</svg>
