<svg width="16" height="16" viewBox="0 0 16 16" fill="none" xmlns="http://www.w3.org/2000/svg">
<g clip-path="url(#clip0_3178_16227)">
<g filter="url(#filter0_d_3178_16227)">
<path fill-rule="evenodd" clip-rule="evenodd" d="M13.8 5.82344V13.7963C13.8 14.999 12.8307 15.9734 11.6185 15.9734H4.38225C3.1773 15.9734 2.20072 15.0005 2.20072 13.7963V5.82344H13.8ZM12.35 5.82344V13.797C12.35 14.1986 12.0194 14.5234 11.6236 14.5234H4.37718C3.97553 14.5234 3.65072 14.1928 3.65072 13.797V5.82344H12.35ZM5.825 2.19844C5.825 1.79824 6.15197 1.47344 6.54347 1.47344H9.45653C9.8531 1.47344 10.175 1.79534 10.175 2.19844C10.175 2.59864 9.84803 2.92344 9.45653 2.92344H6.54347C6.1469 2.92344 5.825 2.60154 5.825 2.19844ZM5.825 7.27126C5.825 6.87179 6.1469 6.54844 6.55 6.54844C6.9502 6.54844 7.275 6.87686 7.275 7.27126V11.6256C7.275 12.0251 6.9531 12.3484 6.55 12.3484C6.1498 12.3484 5.825 12.02 5.825 11.6256V7.27126ZM8.725 7.27126C8.725 6.87179 9.0469 6.54844 9.45 6.54844C9.8502 6.54844 10.175 6.87686 10.175 7.27126V11.6256C10.175 12.0251 9.8531 12.3484 9.45 12.3484C9.0498 12.3484 8.725 12.02 8.725 11.6256V7.27126ZM4.375 2.92344H1.4692C1.0806 2.92344 0.75 3.24824 0.75 3.64844C0.75 4.05154 1.0719 4.37344 1.4692 4.37344H14.5308C14.9194 4.37344 15.25 4.04864 15.25 3.64844C15.25 3.24534 14.9281 2.92344 14.5308 2.92344H11.625V2.19844C11.625 1.00001 10.6513 0.0234375 9.45 0.0234375H6.55072C5.35302 0.0234375 4.37572 0.997113 4.37572 2.19844L4.375 2.92344Z" fill="#FF0000"/>
</g>
</g>
<defs>
<filter id="filter0_d_3178_16227" x="-261.545" y="-249.157" width="539.09" height="540.539" filterUnits="userSpaceOnUse" color-interpolation-filters="sRGB">
<feFlood flood-opacity="0" result="BackgroundImageFix"/>
<feColorMatrix in="SourceAlpha" type="matrix" values="0 0 0 0 0 0 0 0 0 0 0 0 0 0 0 0 0 0 127 0" result="hardAlpha"/>
<feOffset dy="13.1148"/>
<feGaussianBlur stdDeviation="131.148"/>
<feColorMatrix type="matrix" values="0 0 0 0 0 0 0 0 0 0 0 0 0 0 0 0 0 0 0.1 0"/>
<feBlend mode="normal" in2="BackgroundImageFix" result="effect1_dropShadow_3178_16227"/>
<feBlend mode="normal" in="SourceGraphic" in2="effect1_dropShadow_3178_16227" result="shape"/>
</filter>
<clipPath id="clip0_3178_16227">
<rect width="16" height="16" fill="white"/>
</clipPath>
</defs>
</svg>
