<svg width="17" height="16" viewBox="0 0 17 16" fill="none" xmlns="http://www.w3.org/2000/svg">
<path d="M8.5019 8.82261L5.13488 5.62919C5.04239 5.54126 4.91873 5.49289 4.78688 5.49289C4.65495 5.49289 4.53137 5.54126 4.43873 5.62919L4.14385 5.90902C4.05107 5.99681 4 6.11417 4 6.23923C4 6.36429 4.05107 6.48151 4.14385 6.56937L8.15259 10.3716C8.24551 10.4599 8.36968 10.5082 8.50168 10.5078C8.63427 10.5082 8.75829 10.4599 8.85129 10.3716L12.8561 6.57291C12.9489 6.48504 13 6.36783 13 6.2427C13 6.11764 12.9489 6.00042 12.8561 5.91249L12.5613 5.63273C12.3693 5.45069 12.0569 5.45069 11.865 5.63273L8.5019 8.82261Z" fill="white"/>
</svg>
