<svg width="16" height="16" viewBox="0 0 16 16" fill="none" xmlns="http://www.w3.org/2000/svg">
<g clip-path="url(#clip0_3178_16185)">
<path d="M0.685819 16C0.504002 15.9998 0.329702 15.9274 0.201139 15.7989C0.0725753 15.6703 0.000241938 15.496 0 15.3142L0 11.491C0.000658031 11.3092 0.072943 11.1351 0.201173 11.0063L10.4802 0.729107C10.7112 0.497962 10.9855 0.314599 11.2874 0.189495C11.5892 0.0643917 11.9128 0 12.2396 0C12.5663 0 12.8899 0.0643917 13.1918 0.189495C13.4937 0.314599 13.7679 0.497962 13.9989 0.729107L15.2709 2.00107C15.502 2.23206 15.6854 2.50632 15.8105 2.8082C15.9356 3.11008 16 3.43365 16 3.76042C16 4.0872 15.9356 4.41077 15.8105 4.71265C15.6854 5.01453 15.502 5.28879 15.2709 5.51978L4.99459 15.7988C4.93095 15.8628 4.85527 15.9135 4.77193 15.948C4.68859 15.9825 4.59924 16.0002 4.50903 16H0.685819ZM1.37164 11.7744V14.6284H4.22464L11.4577 7.39526L8.60474 4.54226L1.37164 11.7744ZM12.4279 6.42597L14.3034 4.55049C14.5124 4.34086 14.6298 4.05691 14.6298 3.76088C14.6298 3.46486 14.5124 3.18091 14.3034 2.97128L13.0296 1.69657C12.8201 1.48734 12.5361 1.36982 12.24 1.36982C11.9439 1.36982 11.6599 1.48734 11.4504 1.69657L9.57403 3.57297L12.4279 6.42597Z" fill="white"/>
</g>
<defs>
<clipPath id="clip0_3178_16185">
<rect width="16" height="16" fill="white"/>
</clipPath>
</defs>
</svg>
