<svg width="16" height="16" viewBox="0 0 16 16" fill="none" xmlns="http://www.w3.org/2000/svg">
<path d="M3.14038 5.05078C2.59879 5.4391 2.09827 5.8817 1.64659 6.37169C1.23124 6.81348 1 7.39703 1 8.0034C1 8.60977 1.23124 9.19332 1.64659 9.63511C2.76547 10.8466 4.88475 12.5359 7.99924 12.5359C8.83841 12.5359 9.60505 12.4129 10.2992 12.2109L9.22303 11.1341C8.81904 11.2056 8.40952 11.2414 7.99924 11.2409C5.38786 11.2409 3.58845 9.82936 2.59842 8.75645C2.40411 8.55389 2.29562 8.28408 2.29562 8.0034C2.29562 7.72272 2.40411 7.4529 2.59842 7.25035C3.03825 6.77179 3.53215 6.34591 4.07019 5.98124L3.14038 5.05208V5.05078Z" fill="white"/>
<path d="M5.75193 7.66704C5.69899 8.0179 5.72918 8.37629 5.84006 8.71335C5.95095 9.05042 6.13943 9.35673 6.39034 9.60764C6.64124 9.85854 6.94756 10.047 7.28462 10.1579C7.62168 10.2688 7.98007 10.299 8.33093 10.246L5.75193 7.66704ZM10.2411 8.29447L7.7035 5.7569C8.04727 5.71256 8.39663 5.74766 8.7247 5.85951C9.05278 5.97135 9.35082 6.15696 9.59592 6.40205C9.84101 6.64715 10.0266 6.9452 10.1385 7.27327C10.2503 7.60135 10.2854 7.9507 10.2411 8.29447Z" fill="white"/>
<path d="M11.961 10.0062C12.4882 9.64582 12.9726 9.22655 13.4049 8.75652C13.5992 8.55397 13.7077 8.28415 13.7077 8.00347C13.7077 7.72279 13.5992 7.45297 13.4049 7.25042C12.4136 6.17751 10.6142 4.76595 8.00347 4.76595C7.58907 4.76595 7.19409 4.80156 6.82048 4.86567L5.74044 3.78563C6.47633 3.5753 7.23811 3.46937 8.00347 3.47094C11.1186 3.47094 13.2372 5.16028 14.3555 6.37176C14.7708 6.81355 15.0021 7.3971 15.0021 8.00347C15.0021 8.60984 14.7708 9.19339 14.3555 9.63518C13.9799 10.0425 13.4917 10.5028 12.8902 10.9354L11.961 10.0062ZM1.53361 2.44918C1.47177 2.38945 1.42244 2.318 1.38851 2.23901C1.35457 2.16001 1.33671 2.07504 1.33596 1.98907C1.33521 1.90309 1.3516 1.81783 1.38415 1.73825C1.41671 1.65868 1.46479 1.58638 1.52559 1.52559C1.58638 1.46479 1.65868 1.41671 1.73825 1.38415C1.81783 1.3516 1.90309 1.33521 1.98907 1.33596C2.07504 1.33671 2.16001 1.35457 2.23901 1.38851C2.318 1.42244 2.38945 1.47177 2.44918 1.53361L14.4785 13.5629C14.5965 13.6851 14.6617 13.8486 14.6602 14.0184C14.6588 14.1882 14.5907 14.3506 14.4706 14.4706C14.3506 14.5907 14.1882 14.6588 14.0184 14.6602C13.8486 14.6617 13.6851 14.5965 13.5629 14.4785L1.53361 2.44918Z" fill="white"/>
</svg>
