<svg width="16" height="16" viewBox="0 0 16 16" fill="none" xmlns="http://www.w3.org/2000/svg">
<path fill-rule="evenodd" clip-rule="evenodd" d="M7.99328 10.2678C8.29095 10.2678 8.5857 10.2092 8.86071 10.0953C9.13573 9.98135 9.38561 9.81439 9.59609 9.6039C9.80657 9.39342 9.97354 9.14354 10.0875 8.86853C10.2014 8.59352 10.26 8.29876 10.26 8.00109C10.26 7.70342 10.2014 7.40867 10.0875 7.13366C9.97354 6.85865 9.80657 6.60877 9.59609 6.39828C9.38561 6.1878 9.13573 6.02083 8.86071 5.90692C8.5857 5.79301 8.29095 5.73437 7.99328 5.73438C7.39211 5.73438 6.81556 5.97319 6.39047 6.39828C5.96538 6.82337 5.72656 7.39992 5.72656 8.00109C5.72656 8.60226 5.96538 9.17881 6.39047 9.6039C6.81556 10.029 7.39211 10.2678 7.99328 10.2678ZM7.99328 8.96866C7.73667 8.96866 7.49056 8.86672 7.30911 8.68526C7.12765 8.50381 7.02571 8.25771 7.02571 8.00109C7.02571 7.74448 7.12765 7.49837 7.30911 7.31692C7.49056 7.13547 7.73667 7.03353 7.99328 7.03353C8.24989 7.03353 8.496 7.13547 8.67745 7.31692C8.8589 7.49837 8.96084 7.74448 8.96084 8.00109C8.96084 8.25771 8.8589 8.50381 8.67745 8.68526C8.496 8.86672 8.24989 8.96866 7.99328 8.96866Z" fill="white"/>
<path fill-rule="evenodd" clip-rule="evenodd" d="M8 3.46484C4.88488 3.46484 2.76518 5.15452 1.64672 6.36624C1.23129 6.80812 1 7.39178 1 7.99828C1 8.60477 1.23129 9.18844 1.64672 9.63031C2.76453 10.842 4.88359 12.5317 8 12.5317C11.1158 12.5317 13.2348 10.842 14.3533 9.63031C14.7687 9.18844 15 8.60477 15 7.99828C15 7.39178 14.7687 6.80812 14.3533 6.36624C13.2355 5.15452 11.1164 3.46484 8 3.46484ZM2.59874 7.24508C3.58897 6.17195 5.38809 4.76011 8 4.76011C10.6119 4.76011 12.4117 6.17195 13.4019 7.24508C13.5963 7.44767 13.7048 7.71754 13.7048 7.99828C13.7048 8.27901 13.5963 8.54888 13.4019 8.75148C12.411 9.8246 10.6119 11.2364 8.00065 11.2364C5.38809 11.2364 3.58832 9.8246 2.59809 8.75148C2.40375 8.54888 2.29523 8.27901 2.29523 7.99828C2.29523 7.71754 2.40375 7.44767 2.59809 7.24508H2.59874Z" fill="white"/>
</svg>
