<svg width="141" height="24" viewBox="0 0 141 24" fill="none" xmlns="http://www.w3.org/2000/svg">
<path d="M2.40263 23.256C1.74129 23.256 1.22929 23.0747 0.866625 22.712C0.525292 22.328 0.354625 21.8053 0.354625 21.144V2.52C0.354625 1.83733 0.535959 1.32533 0.898625 0.983999C1.26129 0.621332 1.77329 0.439999 2.43463 0.439999H10.1466C12.6213 0.439999 14.5306 1.03733 15.8746 2.232C17.2186 3.40533 17.8906 5.05867 17.8906 7.192C17.8906 8.57867 17.5813 9.77333 16.9626 10.776C16.3653 11.7787 15.4906 12.5467 14.3386 13.08C13.1866 13.6133 11.7893 13.88 10.1466 13.88L10.4346 13.4H11.4906C12.3653 13.4 13.1226 13.6133 13.7626 14.04C14.424 14.4667 15 15.1387 15.4906 16.056L17.8906 20.504C18.1466 20.952 18.264 21.3893 18.2426 21.816C18.2213 22.2427 18.0613 22.5947 17.7626 22.872C17.464 23.128 17.0266 23.256 16.4506 23.256C15.8746 23.256 15.4053 23.1387 15.0426 22.904C14.68 22.648 14.36 22.264 14.0826 21.752L10.8506 15.8C10.4666 15.0747 10.008 14.5947 9.47463 14.36C8.96263 14.104 8.30129 13.976 7.49063 13.976H4.45063V21.144C4.45063 21.8053 4.27996 22.328 3.93863 22.712C3.59729 23.0747 3.08529 23.256 2.40263 23.256ZM4.45063 10.936H9.44263C10.9146 10.936 12.024 10.6373 12.7706 10.04C13.5386 9.42133 13.9226 8.504 13.9226 7.288C13.9226 6.09333 13.5386 5.19733 12.7706 4.6C12.024 3.98133 10.9146 3.672 9.44263 3.672H4.45063V10.936ZM29.2139 23.32C27.4432 23.32 25.9179 22.9893 24.6379 22.328C23.3579 21.6667 22.3659 20.728 21.6619 19.512C20.9792 18.296 20.6379 16.856 20.6379 15.192C20.6379 13.5707 20.9685 12.152 21.6299 10.936C22.3125 9.72 23.2405 8.77067 24.4139 8.088C25.6085 7.384 26.9632 7.032 28.4779 7.032C29.5872 7.032 30.5792 7.21333 31.4539 7.576C32.3499 7.93867 33.1072 8.46133 33.7259 9.144C34.3659 9.82667 34.8459 10.6587 35.1659 11.64C35.5072 12.6 35.6779 13.688 35.6779 14.904C35.6779 15.288 35.5392 15.5867 35.2619 15.8C35.0059 15.992 34.6325 16.088 34.1419 16.088H23.8699V13.784H32.8619L32.3499 14.264C32.3499 13.2827 32.2005 12.4613 31.9019 11.8C31.6245 11.1387 31.2085 10.6373 30.6539 10.296C30.1205 9.93333 29.4485 9.752 28.6379 9.752C27.7419 9.752 26.9739 9.96533 26.3339 10.392C25.7152 10.7973 25.2352 11.384 24.8939 12.152C24.5739 12.8987 24.4139 13.7947 24.4139 14.84V15.064C24.4139 16.8133 24.8192 18.1253 25.6299 19C26.4619 19.8533 27.6779 20.28 29.2779 20.28C29.8325 20.28 30.4512 20.216 31.1339 20.088C31.8379 19.9387 32.4992 19.6933 33.1179 19.352C33.5659 19.096 33.9605 18.9893 34.3019 19.032C34.6432 19.0533 34.9099 19.1707 35.1019 19.384C35.3152 19.5973 35.4432 19.864 35.4859 20.184C35.5285 20.4827 35.4645 20.792 35.2939 21.112C35.1445 21.432 34.8779 21.7093 34.4939 21.944C33.7472 22.4133 32.8832 22.7653 31.9019 23C30.9419 23.2133 30.0459 23.32 29.2139 23.32ZM40.7656 23.16C40.0403 23.16 39.4536 22.936 39.0056 22.488C38.579 22.04 38.3656 21.464 38.3656 20.76C38.3656 20.0773 38.579 19.5227 39.0056 19.096C39.4536 18.648 40.0403 18.424 40.7656 18.424C41.5123 18.424 42.0883 18.648 42.4936 19.096C42.9203 19.5227 43.1336 20.0773 43.1336 20.76C43.1336 21.464 42.9203 22.04 42.4936 22.488C42.0883 22.936 41.5123 23.16 40.7656 23.16ZM53.3531 23.256C52.7771 23.256 52.3078 23.1173 51.9451 22.84C51.6038 22.5627 51.3265 22.1253 51.1131 21.528L44.4251 2.616C44.1905 1.93333 44.2331 1.35733 44.5531 0.887999C44.8945 0.418665 45.4598 0.183998 46.2491 0.183998C46.8251 0.183998 47.2731 0.322665 47.5931 0.599998C47.9131 0.855999 48.1691 1.272 48.3611 1.848L54.1211 18.936H52.8411L58.8571 1.88C59.0705 1.304 59.3371 0.877332 59.6571 0.599998C59.9771 0.322665 60.3931 0.183998 60.9051 0.183998C61.4171 0.183998 61.8225 0.322665 62.1211 0.599998C62.4198 0.877332 62.6758 1.31467 62.8891 1.912L68.7131 18.936H67.5931L73.4491 1.848C73.6411 1.29333 73.8971 0.877332 74.2171 0.599998C74.5371 0.322665 74.9745 0.183998 75.5291 0.183998C76.2118 0.183998 76.7131 0.418665 77.0331 0.887999C77.3531 1.35733 77.3958 1.93333 77.1611 2.616L70.4091 21.56C70.1958 22.136 69.9185 22.5627 69.5771 22.84C69.2358 23.1173 68.7771 23.256 68.2011 23.256C67.6251 23.256 67.1665 23.1173 66.8251 22.84C66.4838 22.5627 66.2065 22.1253 65.9931 21.528L60.4251 5.656H61.1611L55.5291 21.56C55.3158 22.136 55.0385 22.5627 54.6971 22.84C54.3771 23.1173 53.9291 23.256 53.3531 23.256ZM85.7941 23.32C84.1728 23.32 82.7648 22.9893 81.5701 22.328C80.3755 21.6667 79.4475 20.728 78.7861 19.512C78.1248 18.2747 77.7941 16.824 77.7941 15.16C77.7941 13.9013 77.9755 12.7813 78.3381 11.8C78.7221 10.7973 79.2661 9.944 79.9701 9.24C80.6741 8.51467 81.5168 7.97067 82.4981 7.608C83.4795 7.224 84.5781 7.032 85.7941 7.032C87.4155 7.032 88.8235 7.36267 90.0181 8.024C91.2128 8.68533 92.1408 9.624 92.8021 10.84C93.4635 12.056 93.7941 13.496 93.7941 15.16C93.7941 16.4187 93.6021 17.5493 93.2181 18.552C92.8555 19.5547 92.3221 20.4187 91.6181 21.144C90.9141 21.848 90.0715 22.392 89.0901 22.776C88.1088 23.1387 87.0101 23.32 85.7941 23.32ZM85.7941 20.28C86.5835 20.28 87.2768 20.088 87.8741 19.704C88.4715 19.32 88.9301 18.7547 89.2501 18.008C89.5915 17.24 89.7621 16.2907 89.7621 15.16C89.7621 13.4533 89.3995 12.184 88.6741 11.352C87.9488 10.4987 86.9888 10.072 85.7941 10.072C85.0048 10.072 84.3115 10.264 83.7141 10.648C83.1168 11.0107 82.6475 11.576 82.3061 12.344C81.9861 13.0907 81.8261 14.0293 81.8261 15.16C81.8261 16.8453 82.1888 18.1253 82.9141 19C83.6395 19.8533 84.5995 20.28 85.7941 20.28ZM99.1436 23.256C98.4823 23.256 97.9703 23.0853 97.6076 22.744C97.2663 22.3813 97.0956 21.8693 97.0956 21.208V9.112C97.0956 8.45067 97.2663 7.94933 97.6076 7.608C97.949 7.26667 98.429 7.096 99.0476 7.096C99.6663 7.096 100.146 7.26667 100.488 7.608C100.829 7.94933 101 8.45067 101 9.112V11.128H100.68C100.978 9.848 101.565 8.87733 102.44 8.216C103.314 7.55467 104.477 7.16 105.928 7.032C106.376 6.98933 106.728 7.10667 106.984 7.384C107.261 7.64 107.421 8.04533 107.464 8.6C107.506 9.13333 107.378 9.57067 107.08 9.912C106.802 10.232 106.376 10.424 105.8 10.488L105.096 10.552C103.794 10.68 102.813 11.0853 102.152 11.768C101.49 12.4293 101.16 13.368 101.16 14.584V21.208C101.16 21.8693 100.989 22.3813 100.648 22.744C100.306 23.0853 99.805 23.256 99.1436 23.256ZM115.393 23.32C114.028 23.32 112.822 22.9893 111.777 22.328C110.753 21.6667 109.953 20.728 109.377 19.512C108.801 18.2747 108.513 16.824 108.513 15.16C108.513 13.4747 108.801 12.0347 109.377 10.84C109.953 9.624 110.753 8.68533 111.777 8.024C112.822 7.36267 114.028 7.032 115.393 7.032C116.694 7.032 117.825 7.352 118.785 7.992C119.766 8.632 120.428 9.47467 120.769 10.52H120.417V2.2C120.417 1.53867 120.588 1.03733 120.929 0.695999C121.27 0.354665 121.761 0.183998 122.401 0.183998C123.041 0.183998 123.532 0.354665 123.873 0.695999C124.236 1.03733 124.417 1.53867 124.417 2.2V21.208C124.417 21.8693 124.246 22.3813 123.905 22.744C123.564 23.0853 123.073 23.256 122.433 23.256C121.793 23.256 121.302 23.0853 120.961 22.744C120.62 22.3813 120.449 21.8693 120.449 21.208V18.712L120.801 19.672C120.481 20.7813 119.83 21.6667 118.849 22.328C117.868 22.9893 116.716 23.32 115.393 23.32ZM116.513 20.28C117.302 20.28 117.996 20.088 118.593 19.704C119.19 19.32 119.649 18.7547 119.969 18.008C120.31 17.24 120.481 16.2907 120.481 15.16C120.481 13.4533 120.118 12.184 119.393 11.352C118.668 10.4987 117.708 10.072 116.513 10.072C115.724 10.072 115.03 10.264 114.433 10.648C113.836 11.0107 113.366 11.576 113.025 12.344C112.705 13.0907 112.545 14.0293 112.545 15.16C112.545 16.8453 112.908 18.1253 113.633 19C114.358 19.8533 115.318 20.28 116.513 20.28ZM134.292 23.32C133.375 23.32 132.404 23.224 131.38 23.032C130.356 22.84 129.439 22.5093 128.628 22.04C128.287 21.8267 128.042 21.5813 127.892 21.304C127.764 21.0053 127.711 20.7173 127.732 20.44C127.775 20.1413 127.882 19.8853 128.052 19.672C128.244 19.4587 128.479 19.32 128.756 19.256C129.055 19.192 129.375 19.2453 129.716 19.416C130.57 19.8213 131.37 20.1093 132.116 20.28C132.863 20.4293 133.599 20.504 134.324 20.504C135.348 20.504 136.106 20.3333 136.596 19.992C137.108 19.6293 137.364 19.16 137.364 18.584C137.364 18.0933 137.194 17.72 136.852 17.464C136.532 17.1867 136.042 16.984 135.38 16.856L132.18 16.248C130.858 15.992 129.844 15.512 129.14 14.808C128.458 14.0827 128.116 13.1547 128.116 12.024C128.116 11 128.394 10.1147 128.948 9.368C129.524 8.62133 130.314 8.04533 131.316 7.64C132.319 7.23467 133.471 7.032 134.772 7.032C135.711 7.032 136.586 7.13867 137.396 7.352C138.228 7.544 139.028 7.85333 139.796 8.28C140.116 8.45067 140.33 8.67467 140.436 8.952C140.564 9.22933 140.596 9.51733 140.532 9.816C140.468 10.0933 140.34 10.3493 140.148 10.584C139.956 10.7973 139.711 10.936 139.412 11C139.135 11.0427 138.815 10.9787 138.452 10.808C137.791 10.4667 137.151 10.2213 136.532 10.072C135.935 9.92267 135.359 9.848 134.804 9.848C133.759 9.848 132.98 10.0293 132.468 10.392C131.978 10.7547 131.732 11.2347 131.732 11.832C131.732 12.28 131.882 12.6533 132.18 12.952C132.479 13.2507 132.938 13.4533 133.556 13.56L136.756 14.168C138.143 14.424 139.188 14.8933 139.892 15.576C140.618 16.2587 140.98 17.176 140.98 18.328C140.98 19.8853 140.372 21.112 139.156 22.008C137.94 22.8827 136.319 23.32 134.292 23.32Z" fill="white"/>
</svg>
