<svg width="16" height="16" viewBox="0 0 16 16" fill="none" xmlns="http://www.w3.org/2000/svg">
<path d="M6.74626 12.4959C3.56372 12.4959 1 9.93141 1 6.74794C1 3.56446 3.56372 1 6.74626 1C9.9288 1 12.4925 3.56446 12.4925 6.74794C12.4925 9.93141 9.9288 12.4959 6.74626 12.4959ZM6.74626 1.8843C4.04994 1.8843 1.88404 4.05083 1.88404 6.74794C1.88404 9.44505 4.04994 11.6116 6.74626 11.6116C9.44258 11.6116 11.6085 9.44505 11.6085 6.74794C11.6085 4.05083 9.44258 1.8843 6.74626 1.8843Z" fill="white"/>
<path d="M11.0313 10.4062L15.0006 14.3767L14.3756 15.0019L10.4062 11.0314L11.0313 10.4062Z" fill="white"/>
</svg>
