<svg width="20" height="20" viewBox="0 0 20 20" fill="none" xmlns="http://www.w3.org/2000/svg">
<path d="M9.40621 16.0554C8.81196 15.3576 7.82001 14.6114 6.85932 14.1392C5.88929 13.6624 4.96792 13.3976 3.92182 13.2952C3.71557 13.2752 3.54457 13.2565 3.54183 13.2539C3.53917 13.2539 3.5445 11.1004 3.55517 8.4744L3.57277 3.69998L3.76322 3.71865C4.93266 3.83465 6.23791 4.27651 7.22548 4.89238C8.07659 5.42305 8.95548 6.24252 9.51581 7.02772L9.65683 7.22532V11.7605C9.65683 14.2548 9.64616 16.2952 9.63336 16.2948C9.62003 16.2944 9.51797 16.1866 9.40621 16.0554ZM10.375 11.7491V7.19492L10.6473 6.83106C10.995 6.36652 11.6943 5.66665 12.1568 5.32065C13.393 4.39545 14.7339 3.87265 16.2734 3.71531L16.4687 3.69531V8.4764V13.2576L16.2422 13.2789C14.0985 13.4784 12.2401 14.3628 10.7865 15.8751L10.375 16.3034V11.7491ZM11.7031 15.9938C12.5444 15.2044 13.6582 14.5772 14.7771 14.2624C15.3625 14.0977 16.1239 13.9828 16.6293 13.9828C16.8943 13.9828 17.0413 13.9255 17.1242 13.7893C17.1866 13.6867 17.1873 13.6425 17.1874 9.7684L17.1875 5.85079L17.3047 5.87212C17.3691 5.88545 17.5519 5.93612 17.7109 5.98679L18 6.07879V10.968C18 13.6571 17.9893 15.8572 17.9761 15.8572C17.9628 15.8572 17.7696 15.8159 17.5464 15.7652C16.6645 15.5666 15.9382 15.4983 14.9844 15.524C13.8274 15.556 12.9283 15.7174 11.8594 16.0867L11.4531 16.2271L11.7031 15.9938ZM8.14058 16.0698C7.69669 15.9108 6.96359 15.7235 6.4687 15.6427C5.79579 15.5334 5.33154 15.5043 4.50682 15.5227C3.68738 15.54 3.19172 15.5974 2.51556 15.7508C2.32649 15.7935 2.13313 15.8375 2.08587 15.8468L2 15.8655L2.00015 10.9632L2.00031 6.06079L2.36736 5.95412C2.56923 5.89545 2.75199 5.84079 2.77347 5.83412C2.80454 5.82079 2.81254 6.61946 2.81254 9.74733C2.81254 14.0216 2.8032 13.7833 2.98558 13.9032C3.04904 13.9445 3.18091 13.9632 3.55749 13.9859C5.0541 14.0712 6.47419 14.5737 7.63353 15.4288C7.88353 15.6132 8.48352 16.1196 8.5179 16.1752C8.5419 16.2139 8.5259 16.2099 8.14067 16.0712L8.14058 16.0698Z" fill="white"/>
</svg>
