<svg width="20" height="20" viewBox="0 0 20 20" fill="none" xmlns="http://www.w3.org/2000/svg">
<path fill-rule="evenodd" clip-rule="evenodd" d="M18.7511 10.0008C18.7511 9.83503 18.6853 9.67606 18.5681 9.55885C18.4508 9.44164 18.2919 9.37579 18.1261 9.37579H3.38487L7.31862 5.44329C7.37673 5.38518 7.42282 5.31619 7.45427 5.24027C7.48572 5.16434 7.50191 5.08297 7.50191 5.00079C7.50191 4.91861 7.48572 4.83723 7.45427 4.76131C7.42282 4.68539 7.37673 4.6164 7.31862 4.55829C7.26051 4.50018 7.19152 4.45408 7.1156 4.42264C7.03967 4.39119 6.9583 4.375 6.87612 4.375C6.79394 4.375 6.71256 4.39119 6.63664 4.42264C6.56071 4.45408 6.49173 4.50018 6.43362 4.55829L1.43362 9.55829C1.37541 9.61635 1.32923 9.68532 1.29773 9.76125C1.26622 9.83718 1.25 9.91858 1.25 10.0008C1.25 10.083 1.26622 10.1644 1.29773 10.2403C1.32923 10.3163 1.37541 10.3852 1.43362 10.4433L6.43362 15.4433C6.49173 15.5014 6.56071 15.5475 6.63664 15.5789C6.71256 15.6104 6.79394 15.6266 6.87612 15.6266C6.9583 15.6266 7.03967 15.6104 7.1156 15.5789C7.19152 15.5475 7.26051 15.5014 7.31862 15.4433C7.37673 15.3852 7.42282 15.3162 7.45427 15.2403C7.48572 15.1643 7.50191 15.083 7.50191 15.0008C7.50191 14.9186 7.48572 14.8372 7.45427 14.7613C7.42282 14.6854 7.37673 14.6164 7.31862 14.5583L3.38487 10.6258H18.1261C18.2919 10.6258 18.4508 10.5599 18.5681 10.4427C18.6853 10.3255 18.7511 10.1666 18.7511 10.0008Z" fill="white"/>
</svg>
