<svg width="15" height="22" viewBox="0 0 15 22" fill="none" xmlns="http://www.w3.org/2000/svg">
<path d="M11.1169 11.9102H6.74548C6.43245 11.8982 6.13613 11.7608 5.91879 11.5271C5.70145 11.2934 5.58002 10.9815 5.58002 10.6569C5.58002 10.3323 5.70145 10.0204 5.91879 9.78669C6.13613 9.55297 6.43245 9.41564 6.74548 9.40357H11.1169L9.69714 7.76254C9.48525 7.51596 9.37545 7.19293 9.39142 6.86319C9.4074 6.53345 9.54787 6.22344 9.78253 6.00008C9.89794 5.89012 10.0333 5.80504 10.1807 5.74981C10.3282 5.69458 10.4848 5.67029 10.6414 5.67836C10.798 5.68644 10.9514 5.72671 11.0929 5.79683C11.2343 5.86695 11.3608 5.96553 11.4651 6.08681L14.683 9.80776C14.8852 10.038 14.9981 10.3376 15 10.6488C15.0018 10.9601 14.8925 11.2611 14.693 11.4939L11.4651 15.2252C11.3611 15.3469 11.2347 15.4458 11.0933 15.5162C10.9519 15.5866 10.7984 15.6271 10.6417 15.6353C10.4851 15.6436 10.3284 15.6194 10.1809 15.5641C10.0334 15.5089 9.89794 15.4238 9.78253 15.3137C9.54787 15.0904 9.4074 14.7803 9.39142 14.4506C9.37545 14.1209 9.48525 13.7978 9.69714 13.5513L11.1169 11.9102ZM7.18915 18.8334C7.34492 18.8657 7.49304 18.9294 7.62505 19.0209C7.75706 19.1125 7.87037 19.2301 7.95852 19.367C8.04667 19.5039 8.10793 19.6575 8.1388 19.8189C8.16967 19.9804 8.16955 20.1465 8.13843 20.3079C8.10732 20.4693 8.04584 20.6228 7.95748 20.7596C7.86913 20.8964 7.75564 21.0138 7.62349 21.1051C7.49134 21.1964 7.34313 21.2599 7.18731 21.2919C7.03149 21.3239 6.87111 21.3238 6.71534 21.2915L6.15112 21.1736C2.14971 20.3513 0 19.8847 0 13.9121V7.04784C0 1.32678 2.30709 0.879225 6.12768 0.14024L6.72538 0.0222801C7.03998 -0.0400597 7.3656 0.0296414 7.63059 0.21605C7.89559 0.402459 8.07827 0.690305 8.13843 1.01627C8.1986 1.34223 8.13133 1.6796 7.95142 1.95417C7.77151 2.22875 7.4937 2.41802 7.1791 2.48036L6.57135 2.60179C3.98299 3.10312 2.41926 3.40496 2.41926 7.05131V13.9121C2.41926 17.8342 3.88756 18.1552 6.62158 18.7172L7.18915 18.8334Z" fill="white"/>
</svg>
