<svg width="16" height="16" viewBox="0 0 16 16" fill="none" xmlns="http://www.w3.org/2000/svg">
<path d="M15.3056 5.72852V8.40613L15.9157 9.14702L14.7362 10.2149L13.6514 9.14702L14.3022 8.39222V6.16957C10.8172 7.65134 9.86799 8.12126 9.09545 8.47744C8.32257 8.83362 7.76673 8.83362 6.99385 8.53448C6.23418 8.23535 2.74925 6.85376 0.932519 5.95635C-0.274459 5.35808 -0.355852 4.97337 0.959302 4.46067C2.66785 3.79144 5.32529 2.70899 6.81715 2.12498C7.69855 1.75453 8.173 1.55523 8.98658 1.96845C10.4377 2.5949 13.5835 3.87666 15.2378 4.58902C16.6754 5.24399 15.7126 5.45791 15.3056 5.72852ZM9.27145 9.58842C10.1122 9.23223 11.2513 8.63396 12.4986 8.07882V12.4939C12.4986 12.4939 10.8986 14.2602 8.06447 14.2602C5.0272 14.2602 3.38613 12.4939 3.38613 12.4939V8.36335C4.34928 8.76231 5.42025 9.11815 6.72184 9.57381C7.5222 9.88755 8.53927 9.98703 9.27145 9.58842Z" fill="white"/>
</svg>
