<svg width="20" height="20" viewBox="0 0 20 20" fill="none" xmlns="http://www.w3.org/2000/svg">
<path d="M12.6667 11.3359C13.5256 11.336 14.3514 11.6676 14.9719 12.2617C15.5923 12.8558 15.9594 13.6664 15.9967 14.5246L16 14.6693V15.3359C16.0001 15.6723 15.8731 15.9963 15.6443 16.243C15.4156 16.4896 15.1021 16.6407 14.7667 16.6659L14.6667 16.6693H5.33333C4.99695 16.6694 4.67296 16.5423 4.4263 16.3136C4.17965 16.0849 4.02856 15.7714 4.00333 15.4359L4 15.3359V14.6693C4.00005 13.8103 4.33169 12.9845 4.92577 12.3641C5.51985 11.7437 6.3305 11.3765 7.18867 11.3393L7.33333 11.3359H12.6667ZM10 3.33594C10.8841 3.33594 11.7319 3.68713 12.357 4.31225C12.9821 4.93737 13.3333 5.78522 13.3333 6.66927C13.3333 7.55333 12.9821 8.40117 12.357 9.02629C11.7319 9.65141 10.8841 10.0026 10 10.0026C9.11595 10.0026 8.2681 9.65141 7.64298 9.02629C7.01786 8.40117 6.66667 7.55333 6.66667 6.66927C6.66667 5.78522 7.01786 4.93737 7.64298 4.31225C8.2681 3.68713 9.11595 3.33594 10 3.33594Z" fill="white"/>
</svg>
